<svg width="25" height="25" viewBox="0 0 25 25" fill="none" xmlns="http://www.w3.org/2000/svg">
<path d="M16.3188 13.2954L17.8338 21.8214C17.8508 21.9218 17.8367 22.025 17.7934 22.1172C17.7502 22.2093 17.6798 22.2861 17.5917 22.3372C17.5037 22.3883 17.4021 22.4113 17.3006 22.4031C17.1991 22.3949 17.1025 22.356 17.0238 22.2914L13.4438 19.6044C13.271 19.4753 13.061 19.4055 12.8453 19.4055C12.6296 19.4055 12.4196 19.4753 12.2468 19.6044L8.66079 22.2904C8.58211 22.3548 8.48565 22.3938 8.38429 22.402C8.28292 22.4101 8.18147 22.3872 8.09346 22.3363C8.00545 22.2853 7.93507 22.2087 7.89171 22.1167C7.84835 22.0248 7.83408 21.9217 7.85079 21.8214L9.36479 13.2954" stroke="#4F46E5" stroke-width="2" stroke-linecap="round" stroke-linejoin="round"/>
<path d="M12.8418 14.4053C16.1555 14.4053 18.8418 11.719 18.8418 8.40527C18.8418 5.09156 16.1555 2.40527 12.8418 2.40527C9.52809 2.40527 6.8418 5.09156 6.8418 8.40527C6.8418 11.719 9.52809 14.4053 12.8418 14.4053Z" stroke="#4F46E5" stroke-width="2" stroke-linecap="round" stroke-linejoin="round"/>
</svg>
