<svg width="25" height="25" viewBox="0 0 25 25" fill="none" xmlns="http://www.w3.org/2000/svg">
<path d="M12.8418 7.40527V21.4053" stroke="#4F46E5" stroke-width="2" stroke-linecap="round" stroke-linejoin="round"/>
<path d="M3.8418 18.4053C3.57658 18.4053 3.32223 18.2999 3.13469 18.1124C2.94715 17.9248 2.8418 17.6705 2.8418 17.4053V4.40527C2.8418 4.14006 2.94715 3.8857 3.13469 3.69817C3.32223 3.51063 3.57658 3.40527 3.8418 3.40527H8.8418C9.90266 3.40527 10.9201 3.8267 11.6702 4.57685C12.4204 5.32699 12.8418 6.34441 12.8418 7.40527C12.8418 6.34441 13.2632 5.32699 14.0134 4.57685C14.7635 3.8267 15.7809 3.40527 16.8418 3.40527H21.8418C22.107 3.40527 22.3614 3.51063 22.5489 3.69817C22.7364 3.8857 22.8418 4.14006 22.8418 4.40527V17.4053C22.8418 17.6705 22.7364 17.9248 22.5489 18.1124C22.3614 18.2999 22.107 18.4053 21.8418 18.4053H15.8418C15.0461 18.4053 14.2831 18.7213 13.7205 19.284C13.1579 19.8466 12.8418 20.6096 12.8418 21.4053C12.8418 20.6096 12.5257 19.8466 11.9631 19.284C11.4005 18.7213 10.6374 18.4053 9.8418 18.4053H3.8418Z" stroke="#4F46E5" stroke-width="2" stroke-linecap="round" stroke-linejoin="round"/>
</svg>
