<svg width="68" height="68" viewBox="0 0 68 68" fill="none" xmlns="http://www.w3.org/2000/svg">
<g filter="url(#filter0_dd_1543_3557)">
<path d="M12 24C12 11.8497 21.8497 2 34 2C46.1503 2 56 11.8497 56 24C56 36.1503 46.1503 46 34 46C21.8497 46 12 36.1503 12 24Z" fill="url(#paint0_linear_1543_3557)"/>
<path d="M33.9993 20.6668V17.3335H30.666" stroke="white" stroke-width="2" stroke-linecap="round" stroke-linejoin="round"/>
<path d="M39.0007 20.6665H29.0007C28.0802 20.6665 27.334 21.4127 27.334 22.3332V28.9998C27.334 29.9203 28.0802 30.6665 29.0007 30.6665H39.0007C39.9211 30.6665 40.6673 29.9203 40.6673 28.9998V22.3332C40.6673 21.4127 39.9211 20.6665 39.0007 20.6665Z" stroke="white" stroke-width="2" stroke-linecap="round" stroke-linejoin="round"/>
<path d="M25.666 25.6665H27.3327" stroke="white" stroke-width="2" stroke-linecap="round" stroke-linejoin="round"/>
<path d="M40.666 25.6665H42.3327" stroke="white" stroke-width="2" stroke-linecap="round" stroke-linejoin="round"/>
<path d="M36.5 24.8335V26.5002" stroke="white" stroke-width="2" stroke-linecap="round" stroke-linejoin="round"/>
<path d="M31.5 24.8335V26.5002" stroke="white" stroke-width="2" stroke-linecap="round" stroke-linejoin="round"/>
</g>
<defs>
<filter id="filter0_dd_1543_3557" x="0" y="0" width="68" height="68" filterUnits="userSpaceOnUse" color-interpolation-filters="sRGB">
<feFlood flood-opacity="0" result="BackgroundImageFix"/>
<feColorMatrix in="SourceAlpha" type="matrix" values="0 0 0 0 0 0 0 0 0 0 0 0 0 0 0 0 0 0 127 0" result="hardAlpha"/>
<feMorphology radius="3" operator="erode" in="SourceAlpha" result="effect1_dropShadow_1543_3557"/>
<feOffset dy="10"/>
<feGaussianBlur stdDeviation="7.5"/>
<feColorMatrix type="matrix" values="0 0 0 0 0 0 0 0 0 0 0 0 0 0 0 0 0 0 0.1 0"/>
<feBlend mode="normal" in2="BackgroundImageFix" result="effect1_dropShadow_1543_3557"/>
<feColorMatrix in="SourceAlpha" type="matrix" values="0 0 0 0 0 0 0 0 0 0 0 0 0 0 0 0 0 0 127 0" result="hardAlpha"/>
<feMorphology radius="4" operator="erode" in="SourceAlpha" result="effect2_dropShadow_1543_3557"/>
<feOffset dy="4"/>
<feGaussianBlur stdDeviation="3"/>
<feColorMatrix type="matrix" values="0 0 0 0 0 0 0 0 0 0 0 0 0 0 0 0 0 0 0.1 0"/>
<feBlend mode="normal" in2="effect1_dropShadow_1543_3557" result="effect2_dropShadow_1543_3557"/>
<feBlend mode="normal" in="SourceGraphic" in2="effect2_dropShadow_1543_3557" result="shape"/>
</filter>
<linearGradient id="paint0_linear_1543_3557" x1="12" y1="24" x2="56" y2="24" gradientUnits="userSpaceOnUse">
<stop stop-color="#A855F7"/>
<stop offset="1" stop-color="#EC4899"/>
</linearGradient>
</defs>
</svg>
