<svg width="49" height="48" viewBox="0 0 49 48" fill="none" xmlns="http://www.w3.org/2000/svg">
<g clip-path="url(#clip0_1168_3349)">
<path d="M12.2507 38C12.2507 40.2 14.0882 42 16.334 42H32.6673C34.9131 42 36.7506 40.2 36.7506 38V18C36.7506 15.8 34.9131 14 32.6673 14H16.334C14.0882 14 12.2507 15.8 12.2507 18V38ZM36.7506 8H31.6465L30.1969 6.58C29.8294 6.22 29.2986 6 28.7677 6H20.2336C19.7027 6 19.1719 6.22 18.8044 6.58L17.3548 8H12.2507C11.1277 8 10.209 8.9 10.209 10C10.209 11.1 11.1277 12 12.2507 12H36.7506C37.8736 12 38.7923 11.1 38.7923 10C38.7923 8.9 37.8736 8 36.7506 8Z" fill="#E94235"/>
</g>
<defs>
<clipPath id="clip0_1168_3349">
<rect width="49" height="48" fill="white"/>
</clipPath>
</defs>
</svg>
