<svg width="68" height="68" viewBox="0 0 68 68" fill="none" xmlns="http://www.w3.org/2000/svg">
<g filter="url(#filter0_dd_1543_3570)">
<path d="M12 24C12 11.8497 21.8497 2 34 2C46.1503 2 56 11.8497 56 24C56 36.1503 46.1503 46 34 46C21.8497 46 12 36.1503 12 24Z" fill="url(#paint0_linear_1543_3570)"/>
<path d="M39.8327 31.5V29.8333C39.8327 28.9493 39.4815 28.1014 38.8564 27.4763C38.2313 26.8512 37.3834 26.5 36.4993 26.5H31.4993C30.6153 26.5 29.7674 26.8512 29.1423 27.4763C28.5172 28.1014 28.166 28.9493 28.166 29.8333V31.5" stroke="white" stroke-width="2" stroke-linecap="round" stroke-linejoin="round"/>
<path d="M33.9993 23.1667C35.8403 23.1667 37.3327 21.6743 37.3327 19.8333C37.3327 17.9924 35.8403 16.5 33.9993 16.5C32.1584 16.5 30.666 17.9924 30.666 19.8333C30.666 21.6743 32.1584 23.1667 33.9993 23.1667Z" stroke="white" stroke-width="2" stroke-linecap="round" stroke-linejoin="round"/>
</g>
<defs>
<filter id="filter0_dd_1543_3570" x="0" y="0" width="68" height="68" filterUnits="userSpaceOnUse" color-interpolation-filters="sRGB">
<feFlood flood-opacity="0" result="BackgroundImageFix"/>
<feColorMatrix in="SourceAlpha" type="matrix" values="0 0 0 0 0 0 0 0 0 0 0 0 0 0 0 0 0 0 127 0" result="hardAlpha"/>
<feMorphology radius="3" operator="erode" in="SourceAlpha" result="effect1_dropShadow_1543_3570"/>
<feOffset dy="10"/>
<feGaussianBlur stdDeviation="7.5"/>
<feColorMatrix type="matrix" values="0 0 0 0 0 0 0 0 0 0 0 0 0 0 0 0 0 0 0.1 0"/>
<feBlend mode="normal" in2="BackgroundImageFix" result="effect1_dropShadow_1543_3570"/>
<feColorMatrix in="SourceAlpha" type="matrix" values="0 0 0 0 0 0 0 0 0 0 0 0 0 0 0 0 0 0 127 0" result="hardAlpha"/>
<feMorphology radius="4" operator="erode" in="SourceAlpha" result="effect2_dropShadow_1543_3570"/>
<feOffset dy="4"/>
<feGaussianBlur stdDeviation="3"/>
<feColorMatrix type="matrix" values="0 0 0 0 0 0 0 0 0 0 0 0 0 0 0 0 0 0 0.1 0"/>
<feBlend mode="normal" in2="effect1_dropShadow_1543_3570" result="effect2_dropShadow_1543_3570"/>
<feBlend mode="normal" in="SourceGraphic" in2="effect2_dropShadow_1543_3570" result="shape"/>
</filter>
<linearGradient id="paint0_linear_1543_3570" x1="12" y1="24" x2="56" y2="24" gradientUnits="userSpaceOnUse">
<stop stop-color="#3B82F6"/>
<stop offset="1" stop-color="#2563EB"/>
</linearGradient>
</defs>
</svg>
