<svg width="48" height="48" viewBox="0 0 48 48" fill="none" xmlns="http://www.w3.org/2000/svg">
<path d="M0 8C0 3.58172 3.58172 0 8 0H40C44.4183 0 48 3.58172 48 8V40C48 44.4183 44.4183 48 40 48H8C3.58172 48 0 44.4183 0 40V8Z" fill="#22C55E"/>
<path d="M20 14V18" stroke="white" stroke-width="2" stroke-linecap="round" stroke-linejoin="round"/>
<path d="M28 14V18" stroke="white" stroke-width="2" stroke-linecap="round" stroke-linejoin="round"/>
<path d="M31 16H17C15.8954 16 15 16.8954 15 18V32C15 33.1046 15.8954 34 17 34H31C32.1046 34 33 33.1046 33 32V18C33 16.8954 32.1046 16 31 16Z" stroke="white" stroke-width="2" stroke-linecap="round" stroke-linejoin="round"/>
<path d="M15 22H33" stroke="white" stroke-width="2" stroke-linecap="round" stroke-linejoin="round"/>
</svg>
