<svg width="8" height="8" viewBox="0 0 8 8" fill="none" xmlns="http://www.w3.org/2000/svg">
<path d="M3.5224 8C3.01467 8 2.5432 7.87307 2.108 7.6192C1.68187 7.36533 1.33733 7.02533 1.0744 6.5992C0.820533 6.164 0.6936 5.688 0.6936 5.1712C0.6936 4.66347 0.820533 4.20107 1.0744 3.784C1.33733 3.35787 1.68187 3.01787 2.108 2.764C2.5432 2.51013 3.01467 2.3832 3.5224 2.3832C3.83067 2.3832 4.12533 2.43307 4.4064 2.5328C4.68747 2.62347 4.95493 2.75947 5.2088 2.9408L6.4736 1.5264L5.3992 0.995999L7.684 0.737599L7.6976 3.036L7.0312 2.016L5.7392 3.4576C5.94773 3.71147 6.10187 3.98347 6.2016 4.2736C6.30133 4.55467 6.3512 4.85387 6.3512 5.1712C6.3512 5.688 6.22427 6.164 5.9704 6.5992C5.71653 7.02533 5.372 7.36533 4.9368 7.6192C4.51067 7.87307 4.0392 8 3.5224 8ZM3.5224 7.32C3.91227 7.32 4.2704 7.2248 4.5968 7.0344C4.9232 6.83493 5.1816 6.572 5.372 6.2456C5.57147 5.9192 5.6712 5.56107 5.6712 5.1712C5.6712 4.7904 5.57147 4.44133 5.372 4.124C5.1816 3.7976 4.9232 3.5392 4.5968 3.3488C4.2704 3.1584 3.91227 3.0632 3.5224 3.0632C3.13253 3.0632 2.7744 3.1584 2.448 3.3488C2.1216 3.5392 1.85867 3.7976 1.6592 4.124C1.4688 4.44133 1.3736 4.7904 1.3736 5.1712C1.3736 5.56107 1.4688 5.9192 1.6592 6.2456C1.85867 6.572 2.1216 6.83493 2.448 7.0344C2.7744 7.2248 3.13253 7.32 3.5224 7.32Z" fill="#94A3B8"/>
</svg>
