<svg width="72" height="72" viewBox="0 0 72 72" fill="none" xmlns="http://www.w3.org/2000/svg">
<path d="M0 16C0 7.16344 7.16344 0 16 0H56C64.8366 0 72 7.16344 72 16V56C72 64.8366 64.8366 72 56 72H16C7.16344 72 0 64.8366 0 56V16Z" fill="white" fill-opacity="0.2"/>
<path d="M36 24.3331C36.002 23.6665 35.8706 23.0062 35.6137 22.3911C35.3567 21.776 34.9794 21.2185 34.5038 20.7513C34.0283 20.2842 33.4641 19.9169 32.8445 19.671C32.2249 19.4251 31.5623 19.3056 30.8959 19.3194C30.2294 19.3333 29.5724 19.4804 28.9636 19.7519C28.3548 20.0234 27.8064 20.4139 27.3507 20.9004C26.895 21.387 26.5412 21.9597 26.3101 22.585C26.079 23.2103 25.9753 23.8755 26.005 24.5414C25.0254 24.7933 24.1159 25.2648 23.3454 25.9203C22.575 26.5757 21.9638 27.3979 21.5581 28.3245C21.1525 29.2511 20.963 30.2579 21.004 31.2686C21.0451 32.2793 21.3156 33.2674 21.795 34.1581C20.952 34.843 20.2891 35.7235 19.8639 36.723C19.4388 37.7225 19.2643 38.8107 19.3556 39.8931C19.447 40.9754 19.8014 42.019 20.3881 42.9331C20.9747 43.8472 21.7758 44.6042 22.7217 45.1381C22.6049 46.0418 22.6746 46.9599 22.9265 47.8356C23.1784 48.7114 23.6072 49.5262 24.1864 50.2297C24.7655 50.9332 25.4827 51.5105 26.2937 51.926C27.1048 52.3415 27.9923 52.5863 28.9017 52.6453C29.811 52.7043 30.7228 52.5763 31.5807 52.2691C32.4386 51.9619 33.2244 51.4821 33.8896 50.8594C34.5549 50.2366 35.0853 49.484 35.4483 48.6482C35.8113 47.8124 35.9991 46.911 36 45.9998V24.3331Z" stroke="white" stroke-width="2" stroke-linecap="round" stroke-linejoin="round"/>
<path d="M36 24.3331C35.9981 23.6665 36.1294 23.0062 36.3864 22.3911C36.6433 21.776 37.0207 21.2185 37.4962 20.7513C37.9718 20.2842 38.536 19.9169 39.1556 19.671C39.7752 19.4251 40.4377 19.3056 41.1042 19.3194C41.7707 19.3333 42.4276 19.4804 43.0365 19.7519C43.6453 20.0234 44.1937 20.4139 44.6494 20.9004C45.105 21.387 45.4588 21.9597 45.6899 22.585C45.921 23.2103 46.0248 23.8755 45.995 24.5414C46.9747 24.7933 47.8842 25.2648 48.6546 25.9203C49.4251 26.5757 50.0363 27.3979 50.442 28.3245C50.8476 29.2511 51.0371 30.2579 50.996 31.2686C50.955 32.2793 50.6845 33.2674 50.205 34.1581C51.0481 34.843 51.711 35.7235 52.1361 36.723C52.5613 37.7225 52.7358 38.8107 52.6444 39.8931C52.5531 40.9754 52.1987 42.019 51.612 42.9331C51.0254 43.8472 50.2242 44.6042 49.2784 45.1381C49.3952 46.0418 49.3255 46.9599 49.0735 47.8356C48.8216 48.7114 48.3929 49.5262 47.8137 50.2297C47.2346 50.9332 46.5173 51.5105 45.7063 51.926C44.8953 52.3415 44.0077 52.5863 43.0984 52.6453C42.1891 52.7043 41.2773 52.5763 40.4194 52.2691C39.5615 51.9619 38.7756 51.4821 38.1104 50.8594C37.4452 50.2366 36.9147 49.484 36.5517 48.6482C36.1888 47.8124 36.001 46.911 36 45.9998V24.3331Z" stroke="white" stroke-width="2" stroke-linecap="round" stroke-linejoin="round"/>
<path d="M41 37.6667C39.6007 37.1744 38.3789 36.2783 37.4889 35.0917C36.5989 33.905 36.0808 32.4811 36 31C35.9192 32.4811 35.4011 33.905 34.5111 35.0917C33.6211 36.2783 32.3993 37.1744 31 37.6667" stroke="white" stroke-width="2" stroke-linecap="round" stroke-linejoin="round"/>
<path d="M45.332 26.8337C45.7354 26.1346 45.9636 25.3484 45.997 24.542" stroke="white" stroke-width="2" stroke-linecap="round" stroke-linejoin="round"/>
<path d="M26.0059 24.542C26.0388 25.3482 26.2664 26.1345 26.6692 26.8337" stroke="white" stroke-width="2" stroke-linecap="round" stroke-linejoin="round"/>
<path d="M21.7949 34.16C22.0998 33.9117 22.4261 33.6908 22.7699 33.5" stroke="white" stroke-width="2" stroke-linecap="round" stroke-linejoin="round"/>
<path d="M49.2305 33.5C49.5743 33.6908 49.9006 33.9117 50.2055 34.16" stroke="white" stroke-width="2" stroke-linecap="round" stroke-linejoin="round"/>
<path d="M25.999 45.9996C24.8504 46.0002 23.7211 45.7039 22.7207 45.1396" stroke="white" stroke-width="2" stroke-linecap="round" stroke-linejoin="round"/>
<path d="M49.2783 45.1396C48.2779 45.7039 47.1486 46.0002 46 45.9996" stroke="white" stroke-width="2" stroke-linecap="round" stroke-linejoin="round"/>
</svg>
