<svg width="33" height="32" viewBox="0 0 33 32" fill="none" xmlns="http://www.w3.org/2000/svg">
<path d="M19.4807 21.8317H18.52V14.371C18.52 14.0417 18.3856 13.726 18.1463 13.4932C17.9071 13.2604 17.5825 13.1296 17.2442 13.1296H13.5186C13.1803 13.1296 12.8557 13.2604 12.6165 13.4932C12.3772 13.726 12.2428 14.0417 12.2428 14.371C12.2428 14.7002 12.3772 15.016 12.6165 15.2488C12.8557 15.4816 13.1803 15.6124 13.5186 15.6124H15.9683V21.8317H13.5186C13.1803 21.8317 12.8557 21.9625 12.6165 22.1953C12.3772 22.4281 12.2428 22.7438 12.2428 23.073C12.2428 23.4023 12.3772 23.718 12.6165 23.9508C12.8557 24.1836 13.1803 24.3144 13.5186 24.3144H19.4807C19.8191 24.3144 20.1436 24.1836 20.3829 23.9508C20.6222 23.718 20.7566 23.4023 20.7566 23.073C20.7566 22.7438 20.6222 22.4281 20.3829 22.1953C20.1436 21.9625 19.8191 21.8317 19.4807 21.8317ZM16.4991 10.4296C16.8776 10.4296 17.2476 10.3204 17.5623 10.1158C17.877 9.91117 18.1223 9.62036 18.2672 9.28011C18.412 8.93986 18.4499 8.56546 18.3761 8.20425C18.3022 7.84305 18.12 7.51126 17.8523 7.25084C17.5847 6.99043 17.2437 6.81308 16.8724 6.74124C16.5012 6.66939 16.1164 6.70626 15.7667 6.8472C15.417 6.98813 15.1181 7.2268 14.9078 7.53301C14.6975 7.83923 14.5853 8.19924 14.5853 8.56752C14.5853 9.06138 14.7869 9.535 15.1458 9.88421C15.5047 10.2334 15.9915 10.4296 16.4991 10.4296ZM16.4991 0.482422C12.2708 0.487022 8.217 2.12335 5.22714 5.0324C2.23729 7.94145 0.555509 11.8856 0.550781 15.9997C0.557866 20.113 2.2404 24.0558 5.22975 26.9644C8.2191 29.8729 12.2715 31.51 16.4991 31.5169C20.7288 31.5169 24.7853 29.8821 27.7762 26.972C30.7671 24.062 32.4473 20.1151 32.4473 15.9997C32.4473 11.8842 30.7671 7.93736 27.7762 5.02732C24.7853 2.11727 20.7288 0.482422 16.4991 0.482422ZM25.8511 25.3175C23.6381 27.4153 20.7474 28.7036 17.6693 28.9638C14.5912 29.2241 11.5154 28.4402 8.96365 26.7452C6.41191 25.0503 4.54142 22.5486 3.66951 19.6646C2.7976 16.7806 2.97797 13.6919 4.18003 10.9226C5.38208 8.15329 7.53179 5.87386 10.2644 4.47103C12.9971 3.06821 16.1444 2.6284 19.1723 3.22621C22.2003 3.82402 24.9225 5.42265 26.877 7.75086C28.8315 10.0791 29.898 12.9935 29.8956 15.9997C29.9 17.7376 29.5441 19.4585 28.8491 21.0595C28.1542 22.6605 27.1345 24.1087 25.8511 25.3175Z" fill="#021F86"/>
</svg>
