<svg width="29" height="36" viewBox="0 0 29 36" fill="none" xmlns="http://www.w3.org/2000/svg">
<path d="M2.25065 32C2.25065 34.2 4.08815 36 6.33398 36H22.6673C24.9131 36 26.7506 34.2 26.7506 32V12C26.7506 9.8 24.9131 8 22.6673 8H6.33398C4.08815 8 2.25065 9.8 2.25065 12V32ZM26.7506 2H21.6465L20.1969 0.58C19.8294 0.22 19.2986 0 18.7677 0H10.2336C9.70273 0 9.1719 0.22 8.8044 0.58L7.35482 2H2.25065C1.12773 2 0.208984 2.9 0.208984 4C0.208984 5.1 1.12773 6 2.25065 6H26.7506C27.8736 6 28.7923 5.1 28.7923 4C28.7923 2.9 27.8736 2 26.7506 2Z" fill="#E94235"/>
</svg>
