<svg width="32" height="31" viewBox="0 0 32 31" fill="none" xmlns="http://www.w3.org/2000/svg">
<path d="M16.6344 29.6256L18.025 28.2785L21.3438 25.0634L25.375 21.1582L28.8407 17.8008C29.4032 17.2559 29.975 16.7201 30.5282 16.1661L30.5532 16.1419C30.9125 15.7937 30.9125 15.2064 30.5532 14.8583L29.1625 13.5111L25.8438 10.2961L21.8125 6.39078L18.3469 3.03345C17.7844 2.48853 17.2313 1.93453 16.6594 1.39869L16.6344 1.37447C16.2875 1.03843 15.65 1.01421 15.3094 1.37447C14.9657 1.73775 14.9375 2.30084 15.3094 2.65806L16.7 4.00523L20.0188 7.22027L24.05 11.1255L27.5157 14.4829C28.0782 15.0278 28.6282 15.5848 29.2032 16.1176L29.2282 16.1419V14.8583L27.8375 16.2054L24.5188 19.4205L20.4875 23.3257L17.0219 26.6831C16.4594 27.228 15.8875 27.7638 15.3344 28.3178L15.3094 28.342C14.9625 28.6781 14.9375 29.2957 15.3094 29.6256C15.6813 29.9586 16.2625 29.9859 16.6344 29.6256Z" fill="#4F46E5"/>
<path d="M29.8968 14.5917H3.23433C2.87496 14.5917 2.51246 14.5887 2.15308 14.5917H2.10621C1.61558 14.5917 1.14683 15.0095 1.16871 15.4999C1.19058 15.9933 1.58121 16.4081 2.10621 16.4081H28.7687C29.1281 16.4081 29.4906 16.4111 29.85 16.4081H29.8968C30.3875 16.4081 30.8562 15.9903 30.8343 15.4999C30.8093 15.0064 30.4218 14.5917 29.8968 14.5917Z" fill="#4F46E5"/>
</svg>
