<svg width="80" height="82" viewBox="0 0 80 82" fill="none" xmlns="http://www.w3.org/2000/svg">
<path d="M0 16C0 7.16344 7.16344 0 16 0H64C72.8366 0 80 7.16344 80 16V66C80 74.8366 72.8366 82 64 82H16C7.16344 82 0 74.8366 0 66V16Z" fill="#CAC7FD"/>
<path d="M40 27.0001C40.0027 26.2002 39.8189 25.4078 39.4591 24.6697C39.0994 23.9316 38.5711 23.2626 37.9053 22.702C37.2395 22.1414 36.4496 21.7006 35.5822 21.4056C34.7148 21.1105 33.7872 20.9671 32.8542 20.9837C31.9211 21.0004 31.0013 21.1768 30.149 21.5026C29.2966 21.8284 28.5289 22.2971 27.8909 22.8809C27.253 23.4648 26.7577 24.1521 26.4341 24.9024C26.1106 25.6527 25.9654 26.451 26.007 27.2501C24.6355 27.5524 23.3622 28.1182 22.2835 28.9047C21.2049 29.6912 20.3492 30.6778 19.7813 31.7898C19.2134 32.9017 18.9481 34.1099 19.0056 35.3227C19.063 36.5356 19.4417 37.7213 20.113 38.7901C18.9328 39.612 18.0047 40.6686 17.4095 41.868C16.8143 43.0674 16.57 44.3733 16.6978 45.6721C16.8257 46.9709 17.3219 48.2232 18.1432 49.3201C18.9645 50.4171 20.0861 51.3254 21.4103 51.9661C21.2468 53.0506 21.3444 54.1523 21.6971 55.2031C22.0497 56.254 22.65 57.2318 23.4608 58.076C24.2716 58.9202 25.2758 59.613 26.4112 60.1116C27.5466 60.6102 28.7892 60.904 30.0623 60.9748C31.3353 61.0456 32.6118 60.8919 33.8129 60.5233C35.014 60.1547 36.1141 59.579 37.0454 58.8316C37.9767 58.0843 38.7194 57.1812 39.2276 56.1782C39.7358 55.1752 39.9986 54.0936 40 53.0001V27.0001Z" stroke="#09009E" stroke-width="2" stroke-linecap="round" stroke-linejoin="round"/>
<path d="M40 27.0001C39.9972 26.2002 40.1811 25.4078 40.5409 24.6697C40.9006 23.9316 41.4289 23.2626 42.0947 22.702C42.7605 22.1414 43.5503 21.7006 44.4178 21.4056C45.2852 21.1105 46.2128 20.9671 47.1458 20.9837C48.0789 21.0004 48.9987 21.1768 49.851 21.5026C50.7034 21.8284 51.4711 22.2971 52.1091 22.8809C52.747 23.4648 53.2423 24.1521 53.5659 24.9024C53.8894 25.6527 54.0346 26.451 53.993 27.2501C55.3645 27.5524 56.6378 28.1182 57.7165 28.9047C58.7951 29.6912 59.6508 30.6778 60.2187 31.7898C60.7866 32.9017 61.0519 34.1099 60.9944 35.3227C60.937 36.5356 60.5583 37.7213 59.887 38.7901C61.0672 39.612 61.9953 40.6686 62.5905 41.868C63.1857 43.0674 63.43 44.3733 63.3022 45.6721C63.1743 46.9709 62.6781 48.2232 61.8568 49.3201C61.0355 50.4171 59.9139 51.3254 58.5897 51.9661C58.7532 53.0506 58.6556 54.1523 58.3029 55.2031C57.9502 56.254 57.35 57.2318 56.5392 58.076C55.7284 58.9202 54.7242 59.613 53.5888 60.1116C52.4534 60.6102 51.2108 60.904 49.9377 60.9748C48.6647 61.0456 47.3882 60.8919 46.1871 60.5233C44.986 60.1547 43.8859 59.579 42.9546 58.8316C42.0233 58.0843 41.2806 57.1812 40.7724 56.1782C40.2642 55.1752 40.0014 54.0936 40 53.0001V27.0001Z" stroke="#09009E" stroke-width="2" stroke-linecap="round" stroke-linejoin="round"/>
<path d="M47 43C45.041 42.4093 43.3304 41.334 42.0844 39.91C40.8384 38.486 40.1131 36.7773 40 35C39.8869 36.7773 39.1616 38.486 37.9156 39.91C36.6696 41.334 34.959 42.4093 33 43" stroke="#09009E" stroke-width="2" stroke-linecap="round" stroke-linejoin="round"/>
<path d="M53.0643 30C53.6291 29.1612 53.9485 28.2176 53.9953 27.25" stroke="#09009E" stroke-width="2" stroke-linecap="round" stroke-linejoin="round"/>
<path d="M26.007 27.25C26.0531 28.2175 26.3718 29.161 26.9357 30" stroke="#09009E" stroke-width="2" stroke-linecap="round" stroke-linejoin="round"/>
<path d="M20.113 38.792C20.5399 38.494 20.9966 38.229 21.478 38" stroke="#09009E" stroke-width="2" stroke-linecap="round" stroke-linejoin="round"/>
<path d="M58.522 38C59.0034 38.229 59.4601 38.494 59.887 38.792" stroke="#09009E" stroke-width="2" stroke-linecap="round" stroke-linejoin="round"/>
<path d="M26 52.9998C24.3919 53.0004 22.811 52.6449 21.4103 51.9678" stroke="#09009E" stroke-width="2" stroke-linecap="round" stroke-linejoin="round"/>
<path d="M58.5897 51.9678C57.189 52.6449 55.6081 53.0004 54 52.9998" stroke="#09009E" stroke-width="2" stroke-linecap="round" stroke-linejoin="round"/>
</svg>
