<svg width="24" height="24" viewBox="0 0 24 24" fill="none" xmlns="http://www.w3.org/2000/svg">
<path d="M12 2C17.5228 2 22 6.47715 22 12C22 17.5228 17.5228 22 12 22C6.47715 22 2 17.5228 2 12C2 6.47715 6.47715 2 12 2Z" fill="#726AF8"/>
<path d="M12 2C17.5228 2 22 6.47715 22 12C22 17.5228 17.5228 22 12 22C6.47715 22 2 17.5228 2 12C2 6.47715 6.47715 2 12 2Z" stroke="#E0E7FF" stroke-width="4"/>
<g clip-path="url(#clip0_1327_1755)">
<path d="M12.0001 17.8332C15.2217 17.8332 17.8334 15.2215 17.8334 11.9998C17.8334 8.77818 15.2217 6.1665 12.0001 6.1665C8.77842 6.1665 6.16675 8.77818 6.16675 11.9998C6.16675 15.2215 8.77842 17.8332 12.0001 17.8332Z" stroke="white" stroke-width="2" stroke-linecap="round" stroke-linejoin="round"/>
<path d="M12 8.5V12L14.3333 13.1667" stroke="white" stroke-width="2" stroke-linecap="round" stroke-linejoin="round"/>
</g>
<defs>
<clipPath id="clip0_1327_1755">
<rect width="14" height="14" fill="white" transform="translate(5 5)"/>
</clipPath>
</defs>
</svg>
