<svg width="197" height="57" viewBox="0 0 197 57" fill="none" xmlns="http://www.w3.org/2000/svg">
<path d="M43.1818 10.1667V51.4167M59 23.9167V33.0833M74.8182 10.1667V51.4167M90.6364 10.1667V46.8333M11.5455 1V56M106.455 28.5V33.0833M27.3636 19.3333V42.25M48.4545 19.3333V42.25M64.2727 28.5V33.0833M80.0909 5.58333V51.4167M1 23.9167V33.0833M95.9091 23.9167V33.0833M16.8182 14.75V42.25M111.727 19.3333V42.25M32.6364 10.1667V46.8333M53.7273 19.3333V42.25M69.5455 14.75V42.25M85.3636 14.75V42.25M6.27273 10.1667V46.8333M101.182 10.1667V46.8333M22.0909 19.3333V42.25M117 23.9167V33.0833M37.9091 23.9167V33.0833" stroke="#FCFF61" stroke-width="2" stroke-linecap="round"/>
<path d="M122.182 10.1667V51.4167M138 23.9167V33.0833M153.818 10.1667V51.4167M169.636 10.1667V46.8333M90.5455 1V56M185.455 28.5V33.0833M106.364 19.3333V42.25M127.455 19.3333V42.25M143.273 28.5V33.0833M159.091 5.58333V51.4167M80 23.9167V33.0833M174.909 23.9167V33.0833M95.8182 14.75V42.25M190.727 19.3333V42.25M111.636 10.1667V46.8333M132.727 19.3333V42.25M148.545 14.75V42.25M164.364 14.75V42.25M85.2727 10.1667V46.8333M180.182 10.1667V46.8333M101.091 19.3333V42.25M196 23.9167V33.0833M116.909 23.9167V33.0833" stroke="white" stroke-width="2" stroke-linecap="round"/>
</svg>
